<svg width="118" height="38" viewBox="0 0 118 38" fill="none" xmlns="http://www.w3.org/2000/svg">
<path d="M12.2326 31.4289V27.0972C12.2326 25.9914 13.1356 25.095 14.2494 25.095H18.3212C18.8561 25.095 19.3691 25.3059 19.7473 25.6814C20.1256 26.0569 20.338 26.5662 20.338 27.0972V31.4289C20.3347 31.8887 20.5163 32.3307 20.8425 32.657C21.1688 32.9832 21.6127 33.1667 22.0758 33.1667H24.8538C26.1511 33.17 27.3966 32.6607 28.3152 31.7512C29.2337 30.8416 29.75 29.6066 29.75 28.3186V15.9781C29.75 14.9377 29.2854 13.9508 28.4815 13.2833L19.0315 5.79086C17.3877 4.47717 15.0324 4.51959 13.4376 5.89159L4.20327 13.2833C3.36138 13.9311 2.8582 14.9209 2.83333 15.9781V28.306C2.83333 30.9905 5.02546 33.1667 7.72958 33.1667H10.4441C11.4059 33.1667 12.1876 32.3963 12.1945 31.4415L12.2326 31.4289Z" fill="#5A4FCF"/>
<path d="M46.2736 28.252C45.5642 28.252 45.0229 28.056 44.6496 27.664C44.2762 27.272 44.0896 26.7213 44.0896 26.012V10.472C44.0896 9.744 44.2762 9.19333 44.6496 8.82C45.0416 8.44667 45.5922 8.26 46.3016 8.26H53.1056C55.3082 8.26 57.0069 8.792 58.2016 9.856C59.3962 10.92 59.9936 12.404 59.9936 14.308C59.9936 15.54 59.7229 16.604 59.1816 17.5C58.6402 18.396 57.8562 19.0867 56.8296 19.572C55.8216 20.0573 54.5802 20.3 53.1056 20.3L53.3296 19.824H54.4776C55.2616 19.824 55.9429 20.02 56.5216 20.412C57.1189 20.7853 57.6322 21.364 58.0616 22.148L59.7976 25.368C60.0589 25.8347 60.1802 26.292 60.1616 26.74C60.1429 27.188 59.9749 27.552 59.6576 27.832C59.3402 28.112 58.8736 28.252 58.2576 28.252C57.6416 28.252 57.1376 28.1213 56.7456 27.86C56.3722 27.5987 56.0362 27.1973 55.7376 26.656L53.0496 21.7C52.7696 21.1773 52.4242 20.8227 52.0136 20.636C51.6216 20.4493 51.1362 20.356 50.5576 20.356H48.4296V26.012C48.4296 26.7213 48.2429 27.272 47.8696 27.664C47.5149 28.056 46.9829 28.252 46.2736 28.252ZM48.4296 17.22H52.3216C53.4789 17.22 54.3469 16.9867 54.9256 16.52C55.5229 16.0533 55.8216 15.3533 55.8216 14.42C55.8216 13.5053 55.5229 12.8147 54.9256 12.348C54.3469 11.8813 53.4789 11.648 52.3216 11.648H48.4296V17.22ZM69.9788 28.308C68.3548 28.308 66.9548 28.0187 65.7788 27.44C64.6215 26.8427 63.7255 26.012 63.0908 24.948C62.4748 23.8653 62.1668 22.596 62.1668 21.14C62.1668 19.7213 62.4655 18.48 63.0628 17.416C63.6602 16.3333 64.4908 15.4933 65.5548 14.896C66.6375 14.28 67.8602 13.972 69.2228 13.972C70.2122 13.972 71.1082 14.14 71.9108 14.476C72.7135 14.7933 73.4042 15.26 73.9828 15.876C74.5615 16.4733 75.0002 17.2107 75.2988 18.088C75.5975 18.9467 75.7468 19.908 75.7468 20.972C75.7468 21.3267 75.6348 21.5973 75.4108 21.784C75.1868 21.952 74.8602 22.036 74.4308 22.036H65.6388V19.852H72.6948L72.2468 20.244C72.2468 19.4787 72.1348 18.844 71.9108 18.34C71.6868 17.8173 71.3602 17.4253 70.9308 17.164C70.5202 16.9027 70.0068 16.772 69.3908 16.772C68.7002 16.772 68.1122 16.9307 67.6268 17.248C67.1415 17.5653 66.7682 18.0227 66.5068 18.62C66.2455 19.2173 66.1148 19.936 66.1148 20.776V21C66.1148 22.4187 66.4415 23.464 67.0948 24.136C67.7668 24.808 68.7562 25.144 70.0628 25.144C70.5108 25.144 71.0242 25.088 71.6028 24.976C72.1815 24.864 72.7228 24.6867 73.2268 24.444C73.6562 24.2387 74.0388 24.1733 74.3748 24.248C74.7108 24.304 74.9722 24.4533 75.1588 24.696C75.3455 24.9387 75.4482 25.2187 75.4668 25.536C75.5042 25.8533 75.4388 26.1707 75.2708 26.488C75.1028 26.7867 74.8228 27.0387 74.4308 27.244C73.7962 27.5987 73.0775 27.86 72.2748 28.028C71.4908 28.2147 70.7255 28.308 69.9788 28.308ZM83.47 28.308C82.6487 28.308 81.7994 28.2333 80.922 28.084C80.0634 27.9347 79.2794 27.6827 78.57 27.328C78.1967 27.1413 77.926 26.908 77.758 26.628C77.6087 26.3293 77.5434 26.0307 77.562 25.732C77.5807 25.4333 77.674 25.1627 77.842 24.92C78.0287 24.6773 78.262 24.5187 78.542 24.444C78.8407 24.3507 79.1674 24.3787 79.522 24.528C80.2874 24.8453 80.9874 25.0693 81.622 25.2C82.2567 25.3307 82.882 25.396 83.498 25.396C84.3007 25.396 84.8794 25.2747 85.234 25.032C85.6074 24.7707 85.794 24.4347 85.794 24.024C85.794 23.6507 85.6727 23.3707 85.43 23.184C85.1874 22.9973 84.8327 22.8667 84.366 22.792L81.426 22.26C80.2687 22.0547 79.3727 21.6347 78.738 21C78.122 20.3467 77.814 19.516 77.814 18.508C77.814 17.5747 78.0754 16.772 78.598 16.1C79.1207 15.4093 79.8394 14.8867 80.754 14.532C81.6874 14.1587 82.742 13.972 83.918 13.972C84.758 13.972 85.5327 14.0467 86.242 14.196C86.9514 14.3453 87.6327 14.588 88.286 14.924C88.622 15.092 88.8554 15.316 88.986 15.596C89.1354 15.876 89.182 16.1653 89.126 16.464C89.0887 16.7627 88.9767 17.0333 88.79 17.276C88.6034 17.5187 88.3607 17.6773 88.062 17.752C87.782 17.8267 87.4554 17.7893 87.082 17.64C86.4847 17.36 85.934 17.164 85.43 17.052C84.926 16.9213 84.4407 16.856 83.974 16.856C83.134 16.856 82.5274 16.996 82.154 17.276C81.7807 17.5373 81.594 17.8733 81.594 18.284C81.594 18.6013 81.6967 18.872 81.902 19.096C82.126 19.3013 82.462 19.4413 82.91 19.516L85.85 20.048C87.0634 20.2533 87.9874 20.664 88.622 21.28C89.2567 21.8773 89.574 22.6987 89.574 23.744C89.574 25.1627 89.014 26.2827 87.894 27.104C86.7927 27.9067 85.318 28.308 83.47 28.308ZM98.5986 28.308C97.3106 28.308 96.2279 28.0933 95.3506 27.664C94.4919 27.2347 93.8479 26.6093 93.4186 25.788C93.0079 24.9667 92.8026 23.9307 92.8026 22.68V17.416H91.6266C91.1039 17.416 90.6932 17.276 90.3946 16.996C90.1146 16.716 89.9746 16.3333 89.9746 15.848C89.9746 15.3253 90.1146 14.9333 90.3946 14.672C90.6932 14.392 91.1039 14.252 91.6266 14.252H92.8026V12.124C92.8026 11.4147 92.9892 10.8827 93.3626 10.528C93.7359 10.1547 94.2586 9.968 94.9306 9.968C95.6212 9.968 96.1439 10.1547 96.4986 10.528C96.8532 10.8827 97.0306 11.4147 97.0306 12.124V14.252H99.6906C100.213 14.252 100.615 14.392 100.895 14.672C101.175 14.9333 101.315 15.3253 101.315 15.848C101.315 16.3333 101.175 16.716 100.895 16.996C100.615 17.276 100.213 17.416 99.6906 17.416H97.0306V22.512C97.0306 23.296 97.2079 23.884 97.5626 24.276C97.9359 24.668 98.5239 24.864 99.3266 24.864C99.6066 24.864 99.8679 24.836 100.111 24.78C100.353 24.724 100.577 24.6867 100.783 24.668C101.044 24.6493 101.259 24.7333 101.427 24.92C101.595 25.088 101.679 25.4707 101.679 26.068C101.679 26.516 101.604 26.908 101.455 27.244C101.305 27.58 101.044 27.8227 100.671 27.972C100.428 28.0653 100.092 28.14 99.6626 28.196C99.2519 28.2707 98.8972 28.308 98.5986 28.308ZM109.642 28.308C108.167 28.308 106.879 28.0187 105.778 27.44C104.695 26.8613 103.855 26.0307 103.258 24.948C102.661 23.8653 102.362 22.5867 102.362 21.112C102.362 20.0107 102.53 19.0213 102.866 18.144C103.202 17.2667 103.687 16.52 104.322 15.904C104.975 15.2693 105.75 14.7933 106.646 14.476C107.542 14.14 108.541 13.972 109.642 13.972C111.117 13.972 112.395 14.2613 113.478 14.84C114.579 15.4187 115.429 16.24 116.026 17.304C116.642 18.368 116.95 19.6373 116.95 21.112C116.95 22.232 116.773 23.2307 116.418 24.108C116.082 24.9853 115.597 25.7413 114.962 26.376C114.327 27.0107 113.553 27.496 112.638 27.832C111.742 28.1493 110.743 28.308 109.642 28.308ZM109.642 25.144C110.258 25.144 110.79 24.9947 111.238 24.696C111.686 24.3973 112.041 23.9587 112.302 23.38C112.563 22.7827 112.694 22.0267 112.694 21.112C112.694 19.7493 112.414 18.7507 111.854 18.116C111.294 17.4627 110.557 17.136 109.642 17.136C109.045 17.136 108.513 17.276 108.046 17.556C107.598 17.836 107.243 18.2747 106.982 18.872C106.739 19.4507 106.618 20.1973 106.618 21.112C106.618 22.4747 106.898 23.492 107.458 24.164C108.018 24.8173 108.746 25.144 109.642 25.144Z" fill="#232631"/>
</svg>
