<svg width="80" height="80" viewBox="0 0 80 80" fill="none" xmlns="http://www.w3.org/2000/svg">
<rect width="80" height="80" rx="40" fill="#FDC886" fill-opacity="0.2"/>
<path d="M32.9457 35.6294C33.2489 34.7652 34.8949 34.7652 35.1982 35.6294C35.923 37.6946 37.0047 40.0867 38.4636 41.5457C39.9225 43.0046 42.3147 44.0863 44.3799 44.8111C45.244 45.1144 45.244 46.7603 44.3799 47.0636C42.3147 47.7884 39.9225 48.8701 38.4636 50.329C37.0047 51.7879 35.923 54.1801 35.1982 56.2453C34.8949 57.1094 33.2489 57.1094 32.9457 56.2453C32.2209 54.1801 31.1392 51.7879 29.6803 50.329C28.2213 48.8701 25.8292 47.7884 23.764 47.0636C22.8998 46.7603 22.8998 45.1144 23.764 44.8111C25.8292 44.0863 28.2213 43.0046 29.6803 41.5457C31.1392 40.0867 32.2209 37.6946 32.9457 35.6294Z" fill="#FDC886"/>
<path d="M51.1277 44.5858C51.2715 44.151 52.0765 44.151 52.2203 44.5858C52.6403 45.8558 53.307 47.4331 54.2358 48.362C55.1646 49.2908 56.7419 49.9575 58.012 50.3775C58.4467 50.5213 58.4467 51.3262 58.012 51.47C56.7419 51.89 55.1646 52.5567 54.2358 53.4856C53.307 54.4144 52.6403 55.9917 52.2203 57.2617C52.0765 57.6965 51.2715 57.6965 51.1277 57.2617C50.7077 55.9917 50.041 54.4144 49.1122 53.4856C48.1834 52.5567 46.6061 51.89 45.3361 51.47C44.9013 51.3262 44.9013 50.5213 45.3361 50.3775C46.6061 49.9575 48.1834 49.2908 49.1122 48.362C50.041 47.4331 50.7077 45.8558 51.1277 44.5858Z" fill="#FDC886"/>
<path d="M27.5786 22.7188C27.7224 22.284 28.5274 22.284 28.6712 22.7188C29.0912 23.9888 29.7579 25.5661 30.6867 26.495C31.6155 27.4238 33.1928 28.0905 34.4629 28.5105C34.8976 28.6543 34.8976 29.4592 34.4629 29.603C33.1928 30.023 31.6155 30.6897 30.6867 31.6186C29.7579 32.5474 29.0912 34.1247 28.6712 35.3947C28.5274 35.8295 27.7224 35.8295 27.5786 35.3947C27.1586 34.1247 26.4919 32.5474 25.5631 31.6186C24.6343 30.6897 23.057 30.023 21.787 29.603C21.3522 29.4592 21.3522 28.6543 21.787 28.5105C23.057 28.0905 24.6343 27.4238 25.5631 26.495C26.4919 25.5661 27.1586 23.9888 27.5786 22.7188Z" fill="#FDC886"/>
<path d="M46.1159 24.67C46.4601 23.8213 48.1893 23.8213 48.5335 24.67C49.0539 25.9528 49.7463 27.2697 50.6184 28.1418C51.4906 29.014 52.8074 29.7064 54.0903 30.2267C54.939 30.571 54.939 32.3002 54.0903 32.6444C52.8074 33.1648 51.4906 33.8572 50.6184 34.7293C49.7463 35.6015 49.0539 36.9183 48.5335 38.2012C48.1893 39.0499 46.4601 39.0499 46.1159 38.2012C45.5955 36.9183 44.9031 35.6015 44.0309 34.7293C43.1588 33.8572 41.8419 33.1648 40.5591 32.6444C39.7104 32.3002 39.7104 30.571 40.5591 30.2267C41.8419 29.7064 43.1588 29.014 44.0309 28.1418C44.9031 27.2697 45.5955 25.9528 46.1159 24.67Z" fill="#FDC886"/>
</svg>
