<svg width="80" height="80" viewBox="0 0 80 80" fill="none" xmlns="http://www.w3.org/2000/svg">
<rect width="80" height="80" rx="40" fill="#FDC886" fill-opacity="0.2"/>
<path d="M22.4427 57.5042C20.9523 56.0138 20.9523 53.5973 22.4427 52.1069L42.5328 32.0168L47.9302 37.4141L27.8401 57.5042C26.3496 58.9946 23.9332 58.9946 22.4427 57.5042Z" fill="#FDC886"/>
<path d="M41.9332 31.4172C41.2708 30.7548 41.2708 29.6808 41.9332 29.0184L46.7308 24.2207L55.7264 33.2163L50.9288 38.0139C50.2663 38.6764 49.1924 38.6764 48.5299 38.0139L41.9332 31.4172Z" fill="#FDC886"/>
<rect x="44.3319" y="26.6196" width="11.0254" height="2.54433" transform="rotate(-45 44.3319 26.6196)" fill="#FDC886"/>
<rect x="47.9302" y="30.2178" width="11.0254" height="2.54433" transform="rotate(-45 47.9302 30.2178)" fill="#FDC886"/>
<rect x="51.5284" y="33.816" width="11.0254" height="2.54433" transform="rotate(-45 51.5284 33.816)" fill="#FDC886"/>
<path d="M24.7537 17.476L23.5666 16.2699L22.7378 17.7453C21.2249 20.4385 19.6696 27.1339 25.1306 32.8741L37.9446 46.3434L38.8214 47.2651L39.7431 46.3882L40.5348 45.635L52.71 59.1264C54.4088 61.0088 57.3028 61.1821 59.214 59.5158C61.2318 57.7567 61.3501 54.661 59.4723 52.7531L24.7537 17.476Z" fill="#FDC886" stroke="#FFF4E7" stroke-width="2.54433"/>
</svg>
