<svg width="81" height="80" viewBox="0 0 81 80" fill="none" xmlns="http://www.w3.org/2000/svg">
<circle cx="40.5" cy="40" r="40" fill="#FFF7ED"/>
<path fill-rule="evenodd" clip-rule="evenodd" d="M38.8919 60.6535C39.1226 60.774 39.3806 60.8353 39.6385 60.8333C39.8965 60.8312 40.1524 60.7679 40.3852 60.6453L47.8183 56.6718C49.9261 55.5482 51.5768 54.2918 52.8645 52.8291C55.6645 49.6421 57.1935 45.5746 57.1663 41.3805L57.0782 27.5458C57.0698 25.9523 56.0232 24.5305 54.4753 24.0136L40.6474 19.3741C39.8147 19.0922 38.9024 19.0983 38.0844 19.3884L24.3088 24.1934C22.7694 24.7307 21.7417 26.1628 21.7501 27.7583L21.8381 41.5828C21.8654 45.783 23.4468 49.8321 26.293 52.9864C27.5933 54.4287 29.2586 55.6667 31.3896 56.7719L38.8919 60.6535ZM36.9243 44.3933C37.2347 44.6916 37.6374 44.8386 38.0401 44.8346C38.4428 44.8325 38.8434 44.6813 39.1496 44.379L47.2727 36.3707C47.8831 35.7681 47.8768 34.7997 47.2601 34.2052C46.6414 33.6107 45.6452 33.6148 45.0348 34.2175L38.017 41.1348L35.1436 38.3728C34.5249 37.7783 33.5307 37.7844 32.9183 38.3871C32.308 38.9897 32.3143 39.9581 32.933 40.5526L36.9243 44.3933Z" fill="#FDC886"/>
</svg>
