<svg width="80" height="80" viewBox="0 0 80 80" fill="none" xmlns="http://www.w3.org/2000/svg">
<rect width="80" height="80" rx="40" fill="#FDC886" fill-opacity="0.2"/>
<path d="M32.6217 20.8222C32.6217 19.8158 33.4375 19 34.4439 19H41.7328C42.7392 19 43.555 19.8158 43.555 20.8222V21.7333C43.555 24.2493 41.5154 26.2889 38.9995 26.2889H37.1772C34.6613 26.2889 32.6217 24.2493 32.6217 21.7333V20.8222Z" fill="#FDC886"/>
<path d="M31.566 30.448C32.2206 29.5356 33.2782 29.0222 34.4011 29.0222H41.7756C42.8985 29.0222 43.9561 29.5356 44.6107 30.448C46.7968 33.4955 51.6966 40.8497 52.6661 46.7889C53.0471 49.1224 53.4498 50.9719 52.9276 52.8605C52.0038 56.2017 48.0043 57.2667 44.5377 57.2667H31.639C28.1724 57.2667 24.1729 56.2017 23.2491 52.8605C22.7269 50.9719 23.1297 49.1224 23.5106 46.7889C24.4801 40.8497 29.3799 33.4955 31.566 30.448Z" fill="#FDC886"/>
<path d="M38.708 51.104C38.3921 51.104 38.131 50.9946 37.9244 50.776C37.7179 50.5695 37.6147 50.3143 37.6147 50.0106V48.5164L38.1067 48.9538C37.2684 48.9295 36.5396 48.8262 35.92 48.644C35.3004 48.4618 34.7841 48.2613 34.3711 48.0426C34.1038 47.909 33.9156 47.7268 33.8062 47.496C33.709 47.2652 33.6726 47.0283 33.6969 46.7853C33.7212 46.5302 33.8062 46.3115 33.952 46.1293C34.0978 45.9349 34.2861 45.8074 34.5169 45.7466C34.7598 45.6859 35.0332 45.7345 35.3369 45.8924C35.6284 46.0503 36.0354 46.2143 36.5578 46.3844C37.0801 46.5423 37.7179 46.6213 38.4711 46.6213C39.0299 46.6213 39.4794 46.5606 39.8196 46.4391C40.1597 46.3055 40.4027 46.1354 40.5484 45.9289C40.7064 45.7223 40.7853 45.4855 40.7853 45.2182C40.7853 44.9995 40.7307 44.8052 40.6213 44.6351C40.5241 44.465 40.348 44.3192 40.0929 44.1978C39.8499 44.0641 39.5219 43.9548 39.1089 43.8698L37.1044 43.4324C35.9868 43.1895 35.1547 42.7764 34.608 42.1933C34.0613 41.5981 33.788 40.8327 33.788 39.8973C33.788 39.1684 33.9641 38.5185 34.3164 37.9475C34.6809 37.3766 35.179 36.9149 35.8107 36.5626C36.4545 36.2103 37.2077 35.9978 38.0702 35.9249L37.6147 36.2164V34.8315C37.6147 34.5278 37.7179 34.2727 37.9244 34.0662C38.131 33.8475 38.3921 33.7382 38.708 33.7382C39.0117 33.7382 39.2668 33.8475 39.4733 34.0662C39.6799 34.2727 39.7831 34.5278 39.7831 34.8315V36.2164L39.3276 35.8884C39.8256 35.9127 40.3601 36.0099 40.9311 36.18C41.5142 36.3379 42.0184 36.5687 42.4436 36.8724C42.6744 37.0182 42.8323 37.2004 42.9173 37.4191C43.0145 37.6378 43.0388 37.8564 42.9902 38.0751C42.9538 38.2938 42.8627 38.4881 42.7169 38.6582C42.5711 38.8161 42.3767 38.9194 42.1338 38.968C41.903 39.0044 41.6296 38.9437 41.3138 38.7858C40.9858 38.6278 40.6274 38.4942 40.2387 38.3849C39.8499 38.2755 39.3701 38.2209 38.7991 38.2209C38.0824 38.2209 37.5236 38.3666 37.1227 38.6582C36.7339 38.9498 36.5396 39.3263 36.5396 39.788C36.5396 40.1281 36.655 40.4015 36.8858 40.608C37.1287 40.8145 37.5478 40.9846 38.1431 41.1182L40.1658 41.5555C41.3198 41.8106 42.1702 42.2237 42.7169 42.7946C43.2757 43.3656 43.5551 44.1066 43.5551 45.0178C43.5551 45.7345 43.379 46.3723 43.0267 46.9311C42.6744 47.4778 42.1884 47.9212 41.5689 48.2613C40.9493 48.6015 40.2265 48.8201 39.4004 48.9173L39.7831 48.4982V50.0106C39.7831 50.3143 39.6799 50.5695 39.4733 50.776C39.279 50.9946 39.0238 51.104 38.708 51.104Z" fill="#FFF4E7"/>
<circle cx="51.2444" cy="52.7111" r="6.37778" fill="#FDC886" stroke="#FFF4E7" stroke-width="1.82222"/>
<rect x="49.7996" y="49.9778" width="5.46667" height="1.82222" rx="0.911111" transform="rotate(45 49.7996 49.9778)" fill="#FFF4E7"/>
<rect x="48.5111" y="53.8433" width="5.46667" height="1.82222" rx="0.911111" transform="rotate(-45 48.5111 53.8433)" fill="#FFF4E7"/>
</svg>
