<svg width="80" height="80" viewBox="0 0 80 80" fill="none" xmlns="http://www.w3.org/2000/svg">
<rect width="80" height="80" rx="40" fill="#FDC886" fill-opacity="0.2"/>
<path fill-rule="evenodd" clip-rule="evenodd" d="M60.2981 33.1013L62.0387 34.8413C63.4167 36.1946 64.1661 38.0313 64.1661 39.9646C64.1903 41.898 63.4409 43.7371 62.0871 45.1121C62.0709 45.1299 62.0548 45.1454 62.0387 45.161C62.0307 45.1688 62.0226 45.1766 62.0145 45.1846L60.2981 46.9005C59.6212 47.5771 59.2344 48.4955 59.2344 49.4646V51.9513C59.2344 55.963 55.9707 59.2279 51.9575 59.2279H49.4675C48.5005 59.2279 47.5818 59.6121 46.9049 60.2888L45.1643 62.0288C43.7379 63.4571 41.8764 64.1555 40.0149 64.1555C38.1534 64.1555 36.2919 63.4571 34.8655 62.0554L33.1007 60.2888C32.4238 59.6121 31.5051 59.2279 30.5381 59.2279H28.048C24.0349 59.2279 20.7712 55.963 20.7712 51.9513V49.4646C20.7712 48.4955 20.3844 47.5771 19.7075 46.8763L17.9669 45.1605C15.1384 42.3354 15.1142 37.7171 17.9427 34.8679L19.7075 33.1013C20.3844 32.4246 20.7712 31.5063 20.7712 30.5155V28.0505C20.7712 24.0388 24.0349 20.7787 28.048 20.7787H30.5381C31.5051 20.7787 32.4238 20.3896 33.1007 19.713L34.8413 17.973C37.6699 15.1237 42.2874 15.1237 45.1401 17.9512L46.9049 19.713C47.5818 20.3896 48.5005 20.7787 49.4675 20.7787H51.9575C55.9707 20.7787 59.2344 24.0388 59.2344 28.0505V30.5421C59.2344 31.5063 59.6212 32.4246 60.2981 33.1013ZM33.7776 48.3264C34.3578 48.3264 34.8897 48.1089 35.2765 47.698L47.7027 35.2788C48.5246 34.4571 48.5246 33.1014 47.7027 32.2797C46.8807 31.4604 45.551 31.4604 44.7291 32.2797L32.3029 44.7014C31.4809 45.523 31.4809 46.8764 32.3029 47.698C32.6897 48.1089 33.2216 48.3264 33.7776 48.3264ZM44.1008 46.1996C44.1008 47.3838 45.0437 48.3263 46.2283 48.3263C47.3887 48.3263 48.3315 47.3838 48.3315 46.1996C48.3315 45.042 47.3887 44.0971 46.2283 44.0971C45.0437 44.0971 44.1008 45.042 44.1008 46.1996ZM33.8019 31.6754C34.9624 31.6754 35.9052 32.6179 35.9052 33.7779C35.9052 34.9645 34.9624 35.9046 33.8019 35.9046C32.6415 35.9046 31.6745 34.9645 31.6745 33.7779C31.6745 32.6179 32.6415 31.6754 33.8019 31.6754Z" fill="#FDC886"/>
</svg>
